<?xml version="1.0" encoding="UTF-8"?>
<svg viewBox="0 0 1280 720" width="100%" height="100%" xmlns="http://www.w3.org/2000/svg">
   <defs />
   <!-- Left yellow shape -->
   <path fill="#ffc000"
      d="M 0,0 H 85 C 85,43 110,87 110,130 c 0,58 -43,153 -43,226 0,73 44,151 44,213 0,98 -26,124 -26,152 H 0 Z" />
   <!-- Left pink circle -->
   <circle cx="173" cy="226" r="32" fill="#ff9999" />
   <!-- Left blue circle -->
   <circle cx="48" cy="577" r="25" fill="#9dc3e6" />
   <!-- Right yellow shape -->
   <path fill="#ffc000"
      d="M 1280,720 h -85 c 21,-36 -24,-88 -24,-131 1,-58 43,-153 43,-226 0,-73 -44,-151 -44,-213 0,-98 12,-124 24.7,-150 h 85 z" />
   <!-- Right pink circle -->
   <circle cx="1138" cy="634" r="32" fill="#ff9999" />
   <!-- Right blue circle -->
   <circle cx="1169" cy="149" r="25" fill="#9dc3e6" />
</svg>